<svg id="svg" version="1.1" xmlns="http://www.w3.org/2000/svg" xmlns:xlink="http://www.w3.org/1999/xlink" width="400" height="400" viewBox="0, 0, 400,400"><g id="svgg"><path id="path0" d="M259.800 61.039 C 252.884 61.379,242.691 63.522,235.462 66.157 C 215.086 73.585,199.790 90.179,193.944 111.200 C 193.730 111.970,193.371 113.230,193.147 114.000 C 192.314 116.861,191.489 121.202,190.752 126.600 C 190.496 128.474,190.208 141.234,190.058 157.400 L 189.800 185.000 163.800 185.200 L 137.800 185.400 137.800 215.000 L 137.800 244.600 163.800 244.800 L 189.800 245.000 189.901 322.500 L 190.002 400.000 221.401 400.000 L 252.800 400.000 252.800 396.787 C 252.800 394.301,252.664 393.523,252.200 393.345 C 251.394 393.035,251.275 246.085,252.080 245.280 C 252.443 244.917,258.763 244.800,278.072 244.800 L 303.585 244.800 303.789 243.900 C 303.901 243.405,304.181 241.470,304.411 239.600 C 304.938 235.329,305.541 230.619,306.027 227.000 C 306.233 225.460,306.587 222.760,306.812 221.000 C 307.038 219.240,307.403 216.450,307.624 214.800 C 307.844 213.150,308.194 210.450,308.400 208.800 C 308.606 207.150,308.966 204.360,309.200 202.600 C 309.434 200.840,309.793 198.050,309.998 196.400 C 310.204 194.750,310.552 191.960,310.772 190.200 C 310.993 188.440,311.290 186.595,311.433 186.100 L 311.693 185.200 282.096 185.200 C 256.754 185.200,252.429 185.117,252.018 184.621 C 251.345 183.811,251.674 139.102,252.374 136.200 C 255.205 124.458,260.508 119.441,272.529 117.134 C 274.097 116.833,282.015 116.576,294.200 116.430 L 313.400 116.200 313.400 89.844 C 313.400 66.822,313.324 63.447,312.800 63.172 C 312.470 62.999,309.590 62.667,306.400 62.434 C 303.210 62.201,298.170 61.832,295.200 61.614 C 289.599 61.202,264.711 60.798,259.800 61.039 " stroke="none" fill="#fbfbfb" fill-rule="evenodd"></path><path id="path1" d="M178.300 0.275 C 176.375 0.361,174.800 0.604,174.800 0.816 C 174.800 1.027,173.551 1.200,172.024 1.200 C 170.497 1.200,169.136 1.380,169.000 1.600 C 168.864 1.820,167.773 2.000,166.576 2.000 C 165.379 2.000,164.400 2.180,164.400 2.400 C 164.400 2.620,163.410 2.800,162.200 2.800 C 160.990 2.800,160.000 2.980,160.000 3.200 C 160.000 3.420,159.201 3.600,158.224 3.600 C 157.247 3.600,156.336 3.780,156.200 4.000 C 156.064 4.220,155.243 4.400,154.376 4.400 C 153.509 4.400,152.800 4.580,152.800 4.800 C 152.800 5.020,152.080 5.200,151.200 5.200 C 150.320 5.200,149.600 5.380,149.600 5.600 C 149.600 5.820,148.880 6.000,148.000 6.000 C 147.120 6.000,146.400 6.180,146.400 6.400 C 146.400 6.620,145.860 6.800,145.200 6.800 C 144.540 6.800,144.000 6.980,144.000 7.200 C 144.000 7.420,143.370 7.600,142.600 7.600 C 141.830 7.600,141.200 7.780,141.200 8.000 C 141.200 8.220,140.690 8.400,140.067 8.400 C 139.443 8.400,138.801 8.533,138.638 8.695 C 138.476 8.857,138.131 9.002,137.872 9.016 C 137.210 9.053,135.154 9.599,134.200 9.991 C 133.760 10.171,132.770 10.536,132.000 10.800 C 130.307 11.382,128.840 11.971,127.905 12.447 C 127.523 12.641,126.848 12.800,126.405 12.800 C 125.962 12.800,125.600 12.980,125.600 13.200 C 125.600 13.420,125.240 13.600,124.800 13.600 C 124.360 13.600,124.000 13.780,124.000 14.000 C 124.000 14.220,123.561 14.400,123.024 14.400 C 122.487 14.400,121.936 14.580,121.800 14.800 C 121.664 15.020,121.203 15.200,120.776 15.200 C 120.349 15.200,120.000 15.380,120.000 15.600 C 120.000 15.820,119.640 16.000,119.200 16.000 C 118.760 16.000,118.400 16.180,118.400 16.400 C 118.400 16.620,118.128 16.800,117.795 16.800 C 117.207 16.800,116.782 16.967,114.905 17.938 C 114.413 18.192,113.738 18.400,113.405 18.400 C 113.072 18.400,112.800 18.580,112.800 18.800 C 112.800 19.020,112.440 19.200,112.000 19.200 C 111.560 19.200,111.200 19.346,111.200 19.525 C 111.200 19.704,110.570 20.098,109.800 20.400 C 109.030 20.702,108.400 21.096,108.400 21.275 C 108.400 21.454,108.040 21.600,107.600 21.600 C 107.160 21.600,106.800 21.780,106.800 22.000 C 106.800 22.220,106.440 22.400,106.000 22.400 C 105.560 22.400,105.200 22.580,105.200 22.800 C 105.200 23.020,104.964 23.200,104.675 23.200 C 104.387 23.200,103.764 23.560,103.292 24.000 C 102.820 24.440,102.156 24.800,101.817 24.800 C 101.478 24.800,101.200 24.980,101.200 25.200 C 101.200 25.420,101.061 25.555,100.892 25.500 C 100.415 25.345,97.200 26.879,97.200 27.261 C 97.200 27.447,97.007 27.600,96.772 27.600 C 96.537 27.600,95.559 28.140,94.600 28.800 C 93.641 29.460,92.703 30.000,92.516 30.000 C 92.329 30.000,91.917 30.360,91.600 30.800 C 91.283 31.240,90.743 31.600,90.400 31.600 C 90.057 31.600,89.517 31.960,89.200 32.400 C 88.883 32.840,88.343 33.200,88.000 33.200 C 87.657 33.200,87.117 33.560,86.800 34.000 C 86.483 34.440,85.991 34.800,85.708 34.800 C 85.425 34.800,84.628 35.340,83.937 36.000 C 83.246 36.660,82.478 37.200,82.229 37.200 C 81.980 37.200,81.517 37.560,81.200 38.000 C 80.883 38.440,80.375 38.800,80.072 38.800 C 79.769 38.800,79.017 39.340,78.400 40.000 C 77.783 40.660,77.164 41.200,77.023 41.200 C 76.748 41.200,76.289 41.568,74.404 43.300 C 73.746 43.905,73.030 44.400,72.814 44.400 C 72.598 44.400,71.651 45.167,70.711 46.105 C 69.770 47.043,68.370 48.255,67.600 48.798 C 66.248 49.751,58.660 57.200,59.041 57.200 C 59.144 57.200,58.817 57.626,58.314 58.146 C 57.811 58.667,57.346 59.048,57.280 58.993 C 57.060 58.810,49.802 66.176,48.798 67.600 C 48.255 68.370,47.043 69.770,46.105 70.711 C 45.167 71.651,44.400 72.598,44.400 72.814 C 44.400 73.030,43.905 73.746,43.300 74.404 C 41.568 76.289,41.200 76.748,41.200 77.023 C 41.200 77.164,40.660 77.783,40.000 78.400 C 39.340 79.017,38.800 79.769,38.800 80.072 C 38.800 80.375,38.440 80.883,38.000 81.200 C 37.560 81.517,37.200 82.007,37.200 82.288 C 37.200 82.570,37.020 82.800,36.800 82.800 C 36.580 82.800,36.400 83.030,36.400 83.312 C 36.400 83.593,36.040 84.083,35.600 84.400 C 35.160 84.717,34.800 85.257,34.800 85.600 C 34.800 85.943,34.440 86.483,34.000 86.800 C 33.560 87.117,33.200 87.657,33.200 88.000 C 33.200 88.343,32.840 88.883,32.400 89.200 C 31.960 89.517,31.600 90.057,31.600 90.400 C 31.600 90.743,31.240 91.283,30.800 91.600 C 30.360 91.917,30.000 92.329,30.000 92.516 C 30.000 92.703,29.460 93.641,28.800 94.600 C 28.140 95.559,27.600 96.522,27.600 96.739 C 27.600 96.956,27.443 97.193,27.251 97.267 C 26.843 97.422,24.800 101.371,24.800 102.003 C 24.800 102.240,24.440 102.820,24.000 103.292 C 23.560 103.764,23.200 104.387,23.200 104.675 C 23.200 104.964,23.020 105.200,22.800 105.200 C 22.580 105.200,22.400 105.560,22.400 106.000 C 22.400 106.440,22.220 106.800,22.000 106.800 C 21.780 106.800,21.600 107.160,21.600 107.600 C 21.600 108.040,21.465 108.401,21.300 108.401 C 21.135 108.402,20.550 109.392,20.000 110.600 C 19.450 111.808,18.865 112.798,18.700 112.799 C 18.535 112.799,18.400 113.072,18.400 113.405 C 18.400 113.738,18.192 114.413,17.938 114.905 C 16.967 116.782,16.800 117.207,16.800 117.795 C 16.800 118.128,16.620 118.400,16.400 118.400 C 16.180 118.400,16.000 118.760,16.000 119.200 C 16.000 119.640,15.820 120.000,15.600 120.000 C 15.380 120.000,15.200 120.360,15.200 120.800 C 15.200 121.240,15.020 121.600,14.800 121.600 C 14.580 121.600,14.400 122.140,14.400 122.800 C 14.400 123.460,14.220 124.000,14.000 124.000 C 13.780 124.000,13.600 124.360,13.600 124.800 C 13.600 125.240,13.420 125.600,13.200 125.600 C 12.980 125.600,12.800 125.962,12.800 126.405 C 12.800 126.848,12.641 127.523,12.447 127.905 C 12.252 128.287,11.871 129.140,11.600 129.800 C 11.329 130.460,10.948 131.313,10.753 131.695 C 10.559 132.077,10.400 132.664,10.400 133.000 C 10.400 133.336,10.237 133.923,10.037 134.305 C 9.440 135.447,8.400 139.222,8.400 140.246 C 8.400 140.771,8.220 141.200,8.000 141.200 C 7.780 141.200,7.600 141.830,7.600 142.600 C 7.600 143.370,7.420 144.000,7.200 144.000 C 6.980 144.000,6.800 144.540,6.800 145.200 C 6.800 145.860,6.620 146.400,6.400 146.400 C 6.180 146.400,6.000 147.120,6.000 148.000 C 6.000 148.880,5.820 149.600,5.600 149.600 C 5.380 149.600,5.200 150.320,5.200 151.200 C 5.200 152.080,5.020 152.800,4.800 152.800 C 4.580 152.800,4.400 153.509,4.400 154.376 C 4.400 155.243,4.220 156.064,4.000 156.200 C 3.780 156.336,3.600 157.247,3.600 158.224 C 3.600 159.201,3.420 160.000,3.200 160.000 C 2.980 160.000,2.800 160.900,2.800 162.000 C 2.800 163.100,2.620 164.000,2.400 164.000 C 2.178 164.000,2.000 165.059,2.000 166.376 C 2.000 167.683,1.820 168.864,1.600 169.000 C 1.380 169.136,1.200 170.371,1.200 171.744 C 1.200 173.207,0.993 174.447,0.700 174.740 C 0.311 175.129,0.200 180.743,0.200 200.087 C 0.200 219.608,0.307 224.969,0.700 225.100 C 1.035 225.212,1.200 226.171,1.200 228.010 C 1.200 229.518,1.380 230.864,1.600 231.000 C 1.820 231.136,2.000 232.317,2.000 233.624 C 2.000 234.941,2.178 236.000,2.400 236.000 C 2.620 236.000,2.800 236.900,2.800 238.000 C 2.800 239.100,2.980 240.000,3.200 240.000 C 3.420 240.000,3.600 240.709,3.600 241.576 C 3.600 242.443,3.780 243.264,4.000 243.400 C 4.220 243.536,4.400 244.447,4.400 245.424 C 4.400 246.401,4.580 247.200,4.800 247.200 C 5.020 247.200,5.200 247.920,5.200 248.800 C 5.200 249.680,5.380 250.400,5.600 250.400 C 5.820 250.400,6.000 251.019,6.000 251.776 C 6.000 252.533,6.180 253.264,6.400 253.400 C 6.620 253.536,6.800 254.177,6.800 254.824 C 6.800 255.471,6.980 256.000,7.200 256.000 C 7.420 256.000,7.600 256.630,7.600 257.400 C 7.600 258.170,7.780 258.800,8.000 258.800 C 8.220 258.800,8.400 259.229,8.400 259.754 C 8.400 260.778,9.440 264.553,10.037 265.695 C 10.237 266.077,10.400 266.664,10.400 267.000 C 10.400 267.336,10.559 267.923,10.753 268.305 C 10.948 268.687,11.329 269.540,11.600 270.200 C 11.871 270.860,12.252 271.713,12.447 272.095 C 12.641 272.477,12.800 273.152,12.800 273.595 C 12.800 274.038,12.980 274.400,13.200 274.400 C 13.420 274.400,13.600 274.760,13.600 275.200 C 13.600 275.640,13.780 276.000,14.000 276.000 C 14.220 276.000,14.400 276.439,14.400 276.976 C 14.400 277.513,14.580 278.064,14.800 278.200 C 15.020 278.336,15.200 278.797,15.200 279.224 C 15.200 279.651,15.380 280.000,15.600 280.000 C 15.820 280.000,16.000 280.360,16.000 280.800 C 16.000 281.240,16.180 281.600,16.400 281.600 C 16.620 281.600,16.800 281.872,16.800 282.205 C 16.800 282.538,16.962 283.123,17.159 283.505 C 17.357 283.887,18.300 285.820,19.255 287.800 C 20.211 289.780,21.129 291.460,21.296 291.533 C 21.463 291.607,21.600 292.012,21.600 292.433 C 21.600 292.855,21.780 293.200,22.000 293.200 C 22.220 293.200,22.400 293.560,22.400 294.000 C 22.400 294.440,22.580 294.800,22.800 294.800 C 23.020 294.800,23.200 295.036,23.200 295.325 C 23.200 295.613,23.531 296.204,23.935 296.638 C 24.339 297.072,24.789 297.903,24.936 298.485 C 25.082 299.068,25.484 299.827,25.829 300.172 C 26.175 300.517,26.341 300.800,26.200 300.800 C 26.059 300.800,26.227 301.085,26.575 301.432 C 26.923 301.780,27.105 302.230,26.980 302.432 C 26.855 302.635,26.943 302.800,27.176 302.800 C 27.409 302.800,27.600 302.993,27.600 303.228 C 27.600 303.463,28.140 304.441,28.800 305.400 C 29.460 306.359,30.000 307.297,30.000 307.484 C 30.000 307.671,30.360 308.083,30.800 308.400 C 31.240 308.717,31.600 309.257,31.600 309.600 C 31.600 309.943,31.960 310.483,32.400 310.800 C 32.840 311.117,33.200 311.657,33.200 312.000 C 33.200 312.343,33.560 312.883,34.000 313.200 C 34.440 313.517,34.800 314.057,34.800 314.400 C 34.800 314.743,35.160 315.283,35.600 315.600 C 36.040 315.917,36.400 316.407,36.400 316.688 C 36.400 316.970,36.580 317.200,36.800 317.200 C 37.020 317.200,37.200 317.430,37.200 317.712 C 37.200 317.993,37.560 318.483,38.000 318.800 C 38.440 319.117,38.800 319.625,38.800 319.928 C 38.800 320.231,39.340 320.983,40.000 321.600 C 40.660 322.217,41.200 322.836,41.200 322.977 C 41.200 323.252,41.568 323.711,43.300 325.596 C 43.905 326.254,44.400 326.970,44.400 327.186 C 44.400 327.402,45.167 328.349,46.105 329.289 C 47.043 330.230,48.255 331.630,48.799 332.400 C 49.342 333.170,51.590 335.561,53.793 337.713 C 55.997 339.865,57.980 341.810,58.200 342.034 C 64.421 348.386,67.316 351.200,67.629 351.200 C 67.843 351.200,69.007 352.190,70.217 353.400 C 71.427 354.610,72.574 355.600,72.766 355.600 C 72.958 355.600,73.693 356.140,74.400 356.800 C 75.107 357.460,75.824 358.000,75.994 358.000 C 76.164 358.000,77.045 358.720,77.952 359.600 C 78.859 360.480,79.831 361.200,80.112 361.200 C 80.393 361.200,80.883 361.560,81.200 362.000 C 81.517 362.440,81.980 362.800,82.229 362.800 C 82.478 362.800,83.246 363.340,83.937 364.000 C 84.628 364.660,85.425 365.200,85.708 365.200 C 85.991 365.200,86.483 365.560,86.800 366.000 C 87.117 366.440,87.657 366.800,88.000 366.800 C 88.343 366.800,88.883 367.160,89.200 367.600 C 89.517 368.040,90.057 368.400,90.400 368.400 C 90.743 368.400,91.283 368.760,91.600 369.200 C 91.917 369.640,92.329 370.000,92.516 370.000 C 92.703 370.000,93.641 370.540,94.600 371.200 C 95.559 371.860,96.537 372.400,96.772 372.400 C 97.007 372.400,97.200 372.580,97.200 372.800 C 97.200 373.020,97.397 373.200,97.638 373.200 C 97.879 373.200,98.565 373.548,99.163 373.973 C 99.760 374.399,100.772 374.878,101.411 375.039 C 102.050 375.199,102.928 375.661,103.362 376.065 C 103.796 376.469,104.387 376.800,104.675 376.800 C 104.964 376.800,105.200 376.980,105.200 377.200 C 105.200 377.420,105.560 377.600,106.000 377.600 C 106.440 377.600,106.800 377.780,106.800 378.000 C 106.800 378.220,107.160 378.400,107.600 378.400 C 108.040 378.400,108.400 378.580,108.400 378.800 C 108.400 379.020,108.745 379.200,109.167 379.200 C 109.588 379.200,109.993 379.336,110.067 379.502 C 110.140 379.668,111.460 380.407,113.000 381.144 C 114.540 381.881,116.113 382.645,116.495 382.842 C 116.877 383.039,117.462 383.200,117.795 383.200 C 118.128 383.200,118.400 383.380,118.400 383.600 C 118.400 383.820,118.760 384.000,119.200 384.000 C 119.640 384.000,120.000 384.180,120.000 384.400 C 120.000 384.620,120.349 384.800,120.776 384.800 C 121.203 384.800,121.664 384.980,121.800 385.200 C 121.936 385.420,122.487 385.600,123.024 385.600 C 123.561 385.600,124.000 385.780,124.000 386.000 C 124.000 386.220,124.360 386.400,124.800 386.400 C 125.240 386.400,125.600 386.580,125.600 386.800 C 125.600 387.020,125.962 387.200,126.405 387.200 C 126.848 387.200,127.523 387.359,127.905 387.553 C 128.840 388.029,130.307 388.618,132.000 389.200 C 132.770 389.464,133.760 389.823,134.200 389.997 C 136.018 390.715,139.355 391.600,140.246 391.600 C 140.771 391.600,141.200 391.780,141.200 392.000 C 141.200 392.220,141.830 392.400,142.600 392.400 C 143.370 392.400,144.000 392.580,144.000 392.800 C 144.000 393.020,144.529 393.200,145.176 393.200 C 145.823 393.200,146.464 393.380,146.600 393.600 C 146.736 393.820,147.467 394.000,148.224 394.000 C 148.981 394.000,149.600 394.180,149.600 394.400 C 149.600 394.620,150.320 394.800,151.200 394.800 C 152.080 394.800,152.800 394.980,152.800 395.200 C 152.800 395.420,153.599 395.600,154.576 395.600 C 155.553 395.600,156.464 395.780,156.600 396.000 C 156.736 396.220,157.557 396.400,158.424 396.400 C 159.291 396.400,160.000 396.580,160.000 396.800 C 160.000 397.020,160.990 397.200,162.200 397.200 C 163.410 397.200,164.400 397.380,164.400 397.600 C 164.400 397.820,165.379 398.000,166.576 398.000 C 167.773 398.000,168.864 398.180,169.000 398.400 C 169.136 398.620,170.497 398.800,172.024 398.800 C 173.551 398.800,174.800 398.957,174.800 399.149 C 174.800 399.785,188.449 400.167,188.844 399.542 C 189.033 399.244,189.191 364.486,189.194 322.303 L 189.200 245.606 163.300 245.503 L 137.400 245.400 137.297 215.244 C 137.223 193.299,137.318 184.940,137.646 184.544 C 138.019 184.096,142.593 184.000,163.649 184.000 L 189.200 184.000 189.242 160.500 C 189.290 133.038,189.558 127.391,191.200 119.200 C 191.442 117.990,191.741 116.324,191.863 115.497 C 191.985 114.671,192.245 113.895,192.442 113.774 C 192.639 113.652,192.800 113.034,192.800 112.400 C 192.800 111.766,192.980 111.136,193.200 111.000 C 193.420 110.864,193.600 110.324,193.600 109.800 C 193.600 109.276,193.780 108.736,194.000 108.600 C 194.220 108.464,194.400 108.001,194.400 107.571 C 194.400 107.141,194.559 106.477,194.753 106.095 C 194.948 105.713,195.289 104.950,195.513 104.400 C 197.681 99.056,199.989 94.587,202.535 90.800 C 203.645 89.150,204.743 87.596,204.976 87.347 C 205.209 87.098,206.030 86.115,206.800 85.162 C 208.596 82.940,212.540 78.996,214.762 77.200 C 215.715 76.430,216.698 75.609,216.947 75.376 C 220.398 72.148,233.464 65.441,239.033 64.040 C 239.895 63.823,241.320 63.442,242.200 63.193 C 245.614 62.226,250.118 61.380,255.400 60.712 C 264.285 59.589,300.019 60.583,312.000 62.287 L 314.200 62.600 314.200 89.800 L 314.200 117.000 294.400 117.252 C 269.563 117.567,264.759 118.458,259.483 123.727 C 253.129 130.071,252.695 132.415,252.496 161.500 L 252.341 184.000 281.671 184.006 C 297.802 184.009,311.241 184.165,311.537 184.352 C 312.114 184.719,312.038 186.707,311.197 193.200 C 310.414 199.247,310.008 202.341,309.610 205.300 C 309.396 206.895,309.026 209.730,308.789 211.600 C 308.239 215.923,307.705 220.015,307.210 223.700 C 306.996 225.295,306.644 228.040,306.428 229.800 C 306.212 231.560,305.842 234.440,305.605 236.200 C 305.369 237.960,305.041 240.570,304.878 242.000 C 304.714 243.430,304.439 244.825,304.267 245.100 C 304.021 245.492,298.363 245.600,278.176 245.600 L 252.400 245.600 252.428 319.100 C 252.454 387.358,252.549 394.977,253.355 393.673 C 253.516 393.413,254.177 393.200,254.824 393.200 C 255.471 393.200,256.000 393.020,256.000 392.800 C 256.000 392.580,256.630 392.400,257.400 392.400 C 258.170 392.400,258.800 392.241,258.800 392.046 C 258.800 391.851,259.787 391.569,260.994 391.418 C 262.200 391.267,263.291 390.977,263.417 390.772 C 263.544 390.567,264.076 390.400,264.600 390.400 C 265.124 390.400,265.664 390.220,265.800 390.000 C 265.936 389.780,266.399 389.600,266.829 389.600 C 267.259 389.600,267.923 389.441,268.305 389.247 C 268.687 389.052,269.540 388.671,270.200 388.400 C 270.860 388.129,271.713 387.748,272.095 387.553 C 272.477 387.359,273.152 387.200,273.595 387.200 C 274.038 387.200,274.400 387.020,274.400 386.800 C 274.400 386.580,274.760 386.400,275.200 386.400 C 275.640 386.400,276.000 386.220,276.000 386.000 C 276.000 385.780,276.439 385.600,276.976 385.600 C 277.513 385.600,278.064 385.420,278.200 385.200 C 278.336 384.980,278.797 384.800,279.224 384.800 C 279.651 384.800,280.000 384.620,280.000 384.400 C 280.000 384.180,280.360 384.000,280.800 384.000 C 281.240 384.000,281.600 383.820,281.600 383.600 C 281.600 383.380,281.872 383.200,282.205 383.200 C 282.538 383.200,283.123 383.038,283.505 382.841 C 283.887 382.643,285.820 381.700,287.800 380.745 C 289.780 379.789,291.460 378.871,291.533 378.704 C 291.607 378.537,292.012 378.400,292.433 378.400 C 292.855 378.400,293.200 378.220,293.200 378.000 C 293.200 377.780,293.560 377.600,294.000 377.600 C 294.440 377.600,294.800 377.420,294.800 377.200 C 294.800 376.980,295.036 376.800,295.325 376.800 C 295.613 376.800,296.236 376.440,296.708 376.000 C 297.180 375.560,297.748 375.200,297.970 375.200 C 298.642 375.200,301.200 373.874,301.200 373.526 C 301.200 373.347,301.560 373.200,302.000 373.200 C 302.440 373.200,302.800 373.020,302.800 372.800 C 302.800 372.580,302.993 372.400,303.228 372.400 C 303.463 372.400,304.441 371.860,305.400 371.200 C 306.359 370.540,307.297 370.000,307.484 370.000 C 307.671 370.000,308.083 369.640,308.400 369.200 C 308.717 368.760,309.257 368.400,309.600 368.400 C 309.943 368.400,310.483 368.040,310.800 367.600 C 311.117 367.160,311.657 366.800,312.000 366.800 C 312.343 366.800,312.883 366.440,313.200 366.000 C 313.517 365.560,314.057 365.200,314.400 365.200 C 314.743 365.200,315.283 364.840,315.600 364.400 C 315.917 363.960,316.407 363.600,316.688 363.600 C 316.970 363.600,317.200 363.420,317.200 363.200 C 317.200 362.980,317.430 362.800,317.712 362.800 C 317.993 362.800,318.483 362.440,318.800 362.000 C 319.117 361.560,319.625 361.200,319.928 361.200 C 320.231 361.200,320.983 360.660,321.600 360.000 C 322.217 359.340,322.874 358.800,323.061 358.800 C 323.247 358.800,324.188 358.080,325.151 357.200 C 326.113 356.320,327.054 355.600,327.242 355.600 C 327.429 355.600,328.573 354.610,329.783 353.400 C 330.993 352.190,332.157 351.200,332.371 351.200 C 332.584 351.200,334.703 349.230,337.079 346.821 C 342.316 341.514,341.514 342.316,346.821 337.079 C 349.230 334.703,351.200 332.584,351.200 332.371 C 351.200 332.157,352.190 330.993,353.400 329.783 C 354.610 328.573,355.600 327.429,355.600 327.242 C 355.600 327.054,356.320 326.113,357.200 325.151 C 358.080 324.188,358.800 323.247,358.800 323.061 C 358.800 322.874,359.340 322.217,360.000 321.600 C 360.660 320.983,361.200 320.231,361.200 319.928 C 361.200 319.625,361.560 319.117,362.000 318.800 C 362.440 318.483,362.800 318.020,362.800 317.771 C 362.800 317.522,363.340 316.754,364.000 316.063 C 364.660 315.372,365.200 314.575,365.200 314.292 C 365.200 314.009,365.560 313.517,366.000 313.200 C 366.440 312.883,366.800 312.343,366.800 312.000 C 366.800 311.657,367.160 311.117,367.600 310.800 C 368.040 310.483,368.400 309.943,368.400 309.600 C 368.400 309.257,368.760 308.717,369.200 308.400 C 369.640 308.083,370.000 307.671,370.000 307.484 C 370.000 307.297,370.540 306.359,371.200 305.400 C 371.860 304.441,372.400 303.463,372.400 303.228 C 372.400 302.993,372.580 302.800,372.800 302.800 C 373.020 302.800,373.200 302.440,373.200 302.000 C 373.200 301.560,373.347 301.200,373.526 301.200 C 373.874 301.200,375.200 298.642,375.200 297.970 C 375.200 297.748,375.560 297.180,376.000 296.708 C 376.440 296.236,376.800 295.613,376.800 295.325 C 376.800 295.036,376.980 294.800,377.200 294.800 C 377.420 294.800,377.600 294.440,377.600 294.000 C 377.600 293.560,377.780 293.200,378.000 293.200 C 378.220 293.200,378.400 292.855,378.400 292.433 C 378.400 292.012,378.537 291.607,378.704 291.533 C 378.871 291.460,379.789 289.780,380.745 287.800 C 381.700 285.820,382.643 283.887,382.841 283.505 C 383.038 283.123,383.200 282.538,383.200 282.205 C 383.200 281.872,383.380 281.600,383.600 281.600 C 383.820 281.600,384.000 281.240,384.000 280.800 C 384.000 280.360,384.180 280.000,384.400 280.000 C 384.620 280.000,384.800 279.651,384.800 279.224 C 384.800 278.797,384.980 278.336,385.200 278.200 C 385.420 278.064,385.600 277.513,385.600 276.976 C 385.600 276.439,385.780 276.000,386.000 276.000 C 386.220 276.000,386.400 275.640,386.400 275.200 C 386.400 274.760,386.580 274.400,386.800 274.400 C 387.020 274.400,387.200 274.038,387.200 273.595 C 387.200 273.152,387.359 272.477,387.553 272.095 C 388.029 271.160,388.618 269.693,389.200 268.000 C 389.464 267.230,389.823 266.240,389.997 265.800 C 390.715 263.982,391.600 260.645,391.600 259.754 C 391.600 259.229,391.780 258.800,392.000 258.800 C 392.220 258.800,392.400 258.170,392.400 257.400 C 392.400 256.630,392.580 256.000,392.800 256.000 C 393.020 256.000,393.200 255.471,393.200 254.824 C 393.200 254.177,393.380 253.536,393.600 253.400 C 393.820 253.264,394.000 252.533,394.000 251.776 C 394.000 251.019,394.180 250.400,394.400 250.400 C 394.620 250.400,394.800 249.680,394.800 248.800 C 394.800 247.920,394.980 247.200,395.200 247.200 C 395.420 247.200,395.600 246.401,395.600 245.424 C 395.600 244.447,395.780 243.536,396.000 243.400 C 396.220 243.264,396.400 242.443,396.400 241.576 C 396.400 240.709,396.580 240.000,396.800 240.000 C 397.020 240.000,397.200 239.111,397.200 238.024 C 397.200 236.937,397.380 235.936,397.600 235.800 C 397.820 235.664,398.000 234.584,398.000 233.400 C 398.000 232.216,398.180 231.136,398.400 231.000 C 398.620 230.864,398.800 229.518,398.800 228.010 C 398.800 226.171,398.965 225.212,399.300 225.100 C 399.693 224.969,399.800 219.591,399.800 200.000 C 399.800 180.409,399.693 175.031,399.300 174.900 C 398.965 174.788,398.800 173.829,398.800 171.990 C 398.800 170.482,398.620 169.136,398.400 169.000 C 398.180 168.864,398.000 167.784,398.000 166.600 C 398.000 165.416,397.820 164.336,397.600 164.200 C 397.380 164.064,397.200 163.063,397.200 161.976 C 397.200 160.889,397.020 160.000,396.800 160.000 C 396.580 160.000,396.400 159.201,396.400 158.224 C 396.400 157.247,396.220 156.336,396.000 156.200 C 395.780 156.064,395.600 155.243,395.600 154.376 C 395.600 153.509,395.420 152.800,395.200 152.800 C 394.980 152.800,394.800 152.080,394.800 151.200 C 394.800 150.320,394.620 149.600,394.400 149.600 C 394.180 149.600,394.000 148.981,394.000 148.224 C 394.000 147.467,393.820 146.736,393.600 146.600 C 393.380 146.464,393.200 145.823,393.200 145.176 C 393.200 144.529,393.020 144.000,392.800 144.000 C 392.580 144.000,392.400 143.370,392.400 142.600 C 392.400 141.830,392.241 141.200,392.046 141.200 C 391.851 141.200,391.569 140.213,391.418 139.006 C 391.267 137.800,390.977 136.709,390.772 136.583 C 390.567 136.456,390.400 135.924,390.400 135.400 C 390.400 134.876,390.220 134.336,390.000 134.200 C 389.780 134.064,389.600 133.601,389.600 133.171 C 389.600 132.741,389.441 132.077,389.247 131.695 C 389.052 131.313,388.671 130.460,388.400 129.800 C 388.129 129.140,387.748 128.287,387.553 127.905 C 387.359 127.523,387.200 126.848,387.200 126.405 C 387.200 125.962,387.020 125.600,386.800 125.600 C 386.580 125.600,386.400 125.240,386.400 124.800 C 386.400 124.360,386.220 124.000,386.000 124.000 C 385.780 124.000,385.600 123.561,385.600 123.024 C 385.600 122.487,385.420 121.936,385.200 121.800 C 384.980 121.664,384.800 121.203,384.800 120.776 C 384.800 120.349,384.620 120.000,384.400 120.000 C 384.180 120.000,384.000 119.640,384.000 119.200 C 384.000 118.760,383.820 118.400,383.600 118.400 C 383.380 118.400,383.200 118.128,383.200 117.795 C 383.200 117.207,383.033 116.782,382.062 114.905 C 381.808 114.413,381.600 113.738,381.600 113.405 C 381.600 113.072,381.465 112.799,381.300 112.799 C 381.135 112.798,380.550 111.808,380.000 110.600 C 379.450 109.392,378.865 108.402,378.700 108.401 C 378.535 108.401,378.400 108.040,378.400 107.600 C 378.400 107.160,378.220 106.800,378.000 106.800 C 377.780 106.800,377.600 106.440,377.600 106.000 C 377.600 105.560,377.420 105.200,377.200 105.200 C 376.980 105.200,376.800 104.964,376.800 104.675 C 376.800 104.387,376.440 103.764,376.000 103.292 C 375.560 102.820,375.200 102.219,375.200 101.957 C 375.200 101.251,373.085 97.200,372.716 97.200 C 372.542 97.200,372.400 97.007,372.400 96.772 C 372.400 96.537,371.860 95.559,371.200 94.600 C 370.540 93.641,370.000 92.703,370.000 92.516 C 370.000 92.329,369.640 91.917,369.200 91.600 C 368.760 91.283,368.400 90.743,368.400 90.400 C 368.400 90.057,368.040 89.517,367.600 89.200 C 367.160 88.883,366.800 88.343,366.800 88.000 C 366.800 87.657,366.440 87.117,366.000 86.800 C 365.560 86.483,365.200 85.943,365.200 85.600 C 365.200 85.257,364.840 84.717,364.400 84.400 C 363.960 84.083,363.600 83.593,363.600 83.312 C 363.600 83.030,363.420 82.800,363.200 82.800 C 362.980 82.800,362.800 82.570,362.800 82.288 C 362.800 82.007,362.440 81.517,362.000 81.200 C 361.560 80.883,361.200 80.375,361.200 80.072 C 361.200 79.769,360.660 79.017,360.000 78.400 C 359.340 77.783,358.800 77.126,358.800 76.939 C 358.800 76.753,358.080 75.812,357.200 74.849 C 356.320 73.887,355.600 72.946,355.600 72.758 C 355.600 72.571,354.610 71.427,353.400 70.217 C 352.190 69.007,351.200 67.847,351.200 67.639 C 351.200 67.431,349.310 65.348,347.000 63.009 C 344.690 60.671,342.800 58.894,342.800 59.060 C 342.800 59.227,342.485 58.948,342.100 58.441 C 340.824 56.763,333.824 49.804,332.400 48.799 C 331.630 48.255,330.230 47.043,329.289 46.105 C 328.349 45.167,327.402 44.400,327.186 44.400 C 326.970 44.400,326.254 43.905,325.596 43.300 C 323.711 41.568,323.252 41.200,322.977 41.200 C 322.836 41.200,322.217 40.660,321.600 40.000 C 320.983 39.340,320.231 38.800,319.928 38.800 C 319.625 38.800,319.117 38.440,318.800 38.000 C 318.483 37.560,317.993 37.200,317.712 37.200 C 317.430 37.200,317.200 37.020,317.200 36.800 C 317.200 36.580,316.970 36.400,316.688 36.400 C 316.407 36.400,315.917 36.040,315.600 35.600 C 315.283 35.160,314.743 34.800,314.400 34.800 C 314.057 34.800,313.517 34.440,313.200 34.000 C 312.883 33.560,312.343 33.200,312.000 33.200 C 311.657 33.200,311.117 32.840,310.800 32.400 C 310.483 31.960,309.943 31.600,309.600 31.600 C 309.257 31.600,308.717 31.240,308.400 30.800 C 308.083 30.360,307.671 30.000,307.484 30.000 C 307.297 30.000,306.359 29.460,305.400 28.800 C 304.441 28.140,303.463 27.600,303.228 27.600 C 302.993 27.600,302.800 27.390,302.800 27.133 C 302.800 26.877,302.695 26.771,302.567 26.899 C 302.440 27.027,301.688 26.693,300.897 26.156 C 300.106 25.619,299.001 25.065,298.443 24.925 C 297.884 24.785,297.072 24.339,296.638 23.935 C 296.204 23.531,295.613 23.200,295.325 23.200 C 295.036 23.200,294.800 23.020,294.800 22.800 C 294.800 22.580,294.440 22.400,294.000 22.400 C 293.560 22.400,293.200 22.220,293.200 22.000 C 293.200 21.780,292.840 21.600,292.400 21.600 C 291.960 21.600,291.599 21.465,291.599 21.300 C 291.598 21.135,290.608 20.550,289.400 20.000 C 288.192 19.450,287.202 18.865,287.201 18.700 C 287.201 18.535,286.928 18.400,286.595 18.400 C 286.007 18.400,285.582 18.233,283.705 17.262 C 283.213 17.008,282.538 16.800,282.205 16.800 C 281.872 16.800,281.600 16.620,281.600 16.400 C 281.600 16.180,281.240 16.000,280.800 16.000 C 280.360 16.000,280.000 15.820,280.000 15.600 C 280.000 15.380,279.640 15.200,279.200 15.200 C 278.760 15.200,278.400 15.020,278.400 14.800 C 278.400 14.580,277.860 14.400,277.200 14.400 C 276.540 14.400,276.000 14.220,276.000 14.000 C 276.000 13.780,275.640 13.600,275.200 13.600 C 274.760 13.600,274.400 13.420,274.400 13.200 C 274.400 12.980,274.038 12.800,273.595 12.800 C 273.152 12.800,272.477 12.641,272.095 12.447 C 271.713 12.252,270.860 11.871,270.200 11.600 C 269.540 11.329,268.687 10.948,268.305 10.753 C 267.923 10.559,267.336 10.400,267.000 10.400 C 266.664 10.400,266.077 10.237,265.695 10.037 C 264.553 9.440,260.778 8.400,259.754 8.400 C 259.229 8.400,258.800 8.220,258.800 8.000 C 258.800 7.780,258.170 7.600,257.400 7.600 C 256.630 7.600,256.000 7.420,256.000 7.200 C 256.000 6.980,255.471 6.800,254.824 6.800 C 254.177 6.800,253.536 6.620,253.400 6.400 C 253.264 6.180,252.533 6.000,251.776 6.000 C 251.019 6.000,250.400 5.820,250.400 5.600 C 250.400 5.380,249.680 5.200,248.800 5.200 C 247.920 5.200,247.200 5.020,247.200 4.800 C 247.200 4.580,246.491 4.400,245.624 4.400 C 244.757 4.400,243.936 4.220,243.800 4.000 C 243.664 3.780,242.753 3.600,241.776 3.600 C 240.799 3.600,240.000 3.420,240.000 3.200 C 240.000 2.980,239.100 2.800,238.000 2.800 C 236.900 2.800,236.000 2.620,236.000 2.400 C 236.000 2.178,234.941 2.000,233.624 2.000 C 232.317 2.000,231.136 1.820,231.000 1.600 C 230.864 1.380,229.518 1.200,228.010 1.200 C 226.193 1.200,225.211 1.034,225.103 0.708 C 224.941 0.222,187.291 -0.126,178.300 0.275 " stroke="none" fill="#3c549c" fill-rule="evenodd"></path><path id="path2" d="M259.000 60.773 C 257.240 60.898,263.540 61.003,273.000 61.006 C 284.282 61.010,287.929 60.925,283.600 60.761 C 275.604 60.458,263.370 60.464,259.000 60.773 M252.000 61.600 L 250.200 61.880 251.800 61.900 C 252.680 61.911,253.850 61.776,254.400 61.600 C 255.663 61.195,254.602 61.195,252.000 61.600 M294.800 61.598 C 297.546 61.924,303.450 62.103,303.167 61.852 C 303.075 61.771,300.570 61.611,297.600 61.498 C 294.113 61.364,293.121 61.400,294.800 61.598 M305.100 62.282 C 305.595 62.378,306.405 62.378,306.900 62.282 C 307.395 62.187,306.990 62.109,306.000 62.109 C 305.010 62.109,304.605 62.187,305.100 62.282 M243.105 63.321 C 241.403 63.773,240.089 64.222,240.185 64.318 C 240.281 64.414,241.854 64.120,243.680 63.664 C 245.506 63.207,247.360 62.757,247.800 62.664 C 248.268 62.564,248.103 62.494,247.400 62.496 C 246.740 62.498,244.807 62.869,243.105 63.321 M309.107 62.690 C 309.826 62.779,310.906 62.777,311.507 62.686 C 312.108 62.595,311.520 62.522,310.200 62.524 C 308.880 62.526,308.388 62.601,309.107 62.690 M313.103 63.279 C 313.498 63.758,313.584 69.506,313.503 90.044 L 313.400 116.200 293.933 116.400 C 283.226 116.510,274.376 116.690,274.266 116.800 C 274.023 117.043,312.793 116.843,313.503 116.597 C 314.325 116.312,314.025 63.141,313.200 62.868 C 312.706 62.705,312.689 62.777,313.103 63.279 M237.800 65.014 C 236.800 65.496,236.766 65.551,237.600 65.348 C 238.733 65.071,240.007 64.421,239.400 64.430 C 239.180 64.433,238.460 64.696,237.800 65.014 M220.495 73.411 C 219.343 74.186,218.400 74.908,218.400 75.015 C 218.400 75.121,219.390 74.551,220.600 73.747 C 222.522 72.471,223.087 72.000,222.695 72.000 C 222.637 72.000,221.647 72.635,220.495 73.411 M215.593 77.068 C 212.815 79.433,208.400 83.700,208.400 84.019 C 208.400 84.153,209.615 83.069,211.100 81.611 C 212.585 80.153,214.790 78.118,216.000 77.089 C 217.210 76.061,218.107 75.215,217.993 75.210 C 217.879 75.204,216.799 76.040,215.593 77.068 M203.287 90.500 C 201.827 92.656,201.512 93.200,201.720 93.200 C 201.812 93.200,202.544 92.210,203.347 91.000 C 204.151 89.790,204.725 88.800,204.623 88.800 C 204.522 88.800,203.920 89.565,203.287 90.500 M200.614 94.635 C 200.241 95.204,200.005 95.738,200.089 95.822 C 200.173 95.907,200.558 95.441,200.944 94.788 C 201.806 93.328,201.548 93.209,200.614 94.635 M198.009 99.700 C 196.119 103.712,194.715 107.249,194.928 107.461 C 195.014 107.547,195.408 106.759,195.803 105.709 C 196.559 103.702,198.482 99.375,199.450 97.504 C 199.764 96.897,199.918 96.400,199.792 96.400 C 199.666 96.400,198.863 97.885,198.009 99.700 M193.646 110.867 C 193.621 111.234,193.496 111.864,193.370 112.267 C 193.152 112.962,193.163 112.963,193.597 112.287 C 193.848 111.896,193.973 111.266,193.873 110.887 C 193.711 110.268,193.688 110.266,193.646 110.867 M192.846 113.667 C 192.821 114.034,192.696 114.664,192.570 115.067 C 192.352 115.762,192.363 115.763,192.797 115.087 C 193.048 114.696,193.173 114.066,193.073 113.687 C 192.911 113.068,192.888 113.066,192.846 113.667 M192.049 116.800 C 192.016 117.130,191.889 117.850,191.767 118.400 C 191.575 119.264,191.607 119.303,191.999 118.688 C 192.248 118.297,192.375 117.577,192.281 117.088 C 192.186 116.600,192.082 116.470,192.049 116.800 M270.400 117.600 C 269.608 117.854,269.567 117.920,270.200 117.920 C 270.640 117.920,271.450 117.776,272.000 117.600 C 272.792 117.346,272.833 117.280,272.200 117.280 C 271.760 117.280,270.950 117.424,270.400 117.600 M267.400 118.400 L 266.600 118.744 267.400 118.766 C 267.840 118.778,268.470 118.613,268.800 118.400 C 269.595 117.886,268.596 117.886,267.400 118.400 M264.489 119.465 C 263.768 119.820,263.242 120.175,263.321 120.254 C 263.399 120.333,264.169 120.045,265.032 119.614 C 265.894 119.184,266.420 118.829,266.200 118.825 C 265.980 118.821,265.210 119.109,264.489 119.465 M260.565 121.848 C 259.522 122.644,258.203 123.841,257.634 124.507 C 255.617 126.870,255.994 126.767,258.480 124.275 C 259.866 122.886,261.450 121.456,262.000 121.096 C 262.550 120.736,262.879 120.433,262.731 120.421 C 262.582 120.409,261.608 121.051,260.565 121.848 M191.249 121.400 C 191.216 121.840,191.096 122.650,190.983 123.200 L 190.777 124.200 191.206 123.219 C 191.442 122.679,191.561 121.869,191.472 121.419 C 191.313 120.621,191.307 120.621,191.249 121.400 M190.264 128.150 C 190.101 129.663,190.050 130.983,190.151 131.084 C 190.414 131.347,190.910 127.050,190.719 126.153 C 190.631 125.739,190.426 126.638,190.264 128.150 M255.104 128.100 C 254.555 128.939,253.683 131.242,254.081 130.800 C 254.409 130.435,255.990 127.200,255.840 127.200 C 255.758 127.200,255.427 127.605,255.104 128.100 M252.849 134.200 C 252.816 134.640,252.696 135.450,252.583 136.000 L 252.377 137.000 252.806 136.019 C 253.042 135.479,253.161 134.669,253.072 134.219 C 252.913 133.421,252.907 133.421,252.849 134.200 M189.598 159.600 L 189.400 184.600 163.500 184.703 C 149.255 184.760,137.600 184.940,137.600 185.103 C 137.600 185.657,189.606 185.250,189.818 184.694 C 189.922 184.422,189.960 173.040,189.902 159.400 L 189.797 134.600 189.598 159.600 M251.862 140.900 C 251.370 147.211,251.555 184.195,252.080 184.720 C 252.446 185.086,259.567 185.177,282.180 185.104 L 311.800 185.008 282.000 184.804 L 252.200 184.600 252.200 161.100 C 252.200 148.175,252.182 137.600,252.159 137.600 C 252.137 137.600,252.003 139.085,251.862 140.900 M311.082 187.550 C 310.927 188.293,310.820 189.373,310.844 189.950 C 310.873 190.642,311.010 190.387,311.247 189.200 C 311.445 188.210,311.552 187.130,311.485 186.800 C 311.419 186.470,311.238 186.808,311.082 187.550 M310.269 193.556 C 310.121 194.295,310.022 195.553,310.049 196.350 C 310.086 197.449,310.182 197.218,310.448 195.400 C 310.831 192.771,310.699 191.405,310.269 193.556 M309.453 200.036 C 309.314 200.731,309.222 201.863,309.249 202.550 C 309.278 203.294,309.438 202.840,309.643 201.428 C 310.011 198.904,309.876 197.918,309.453 200.036 M308.653 206.036 C 308.514 206.731,308.422 207.863,308.449 208.550 C 308.478 209.294,308.638 208.840,308.843 207.428 C 309.211 204.904,309.076 203.918,308.653 206.036 M307.853 212.436 C 307.714 213.131,307.623 214.353,307.651 215.150 C 307.685 216.130,307.810 215.763,308.035 214.018 C 308.389 211.283,308.277 210.313,307.853 212.436 M307.053 218.436 C 306.914 219.131,306.823 220.353,306.851 221.150 C 306.885 222.130,307.010 221.763,307.235 220.018 C 307.589 217.283,307.477 216.313,307.053 218.436 M306.114 227.000 C 306.117 228.100,306.195 228.503,306.287 227.895 C 306.379 227.286,306.377 226.386,306.282 225.895 C 306.187 225.403,306.111 225.900,306.114 227.000 M305.427 231.274 C 304.788 236.605,304.724 237.386,304.942 237.180 C 305.232 236.904,306.083 229.549,305.851 229.318 C 305.758 229.225,305.567 230.105,305.427 231.274 M304.463 238.800 C 304.423 239.570,304.306 240.920,304.202 241.800 L 304.012 243.400 304.423 241.800 C 304.648 240.920,304.766 239.570,304.684 238.800 L 304.534 237.400 304.463 238.800 M303.600 244.400 C 303.600 244.662,294.827 244.800,278.080 244.800 C 258.764 244.800,252.443 244.917,252.080 245.280 C 251.225 246.135,251.400 393.038,252.257 393.366 C 252.778 393.567,252.819 393.505,252.456 393.067 C 252.115 392.656,252.024 373.716,252.099 318.958 L 252.200 245.400 278.100 245.297 C 300.753 245.207,304.000 245.119,304.000 244.597 C 304.000 244.269,303.910 244.000,303.800 244.000 C 303.690 244.000,303.600 244.180,303.600 244.400 M137.600 244.900 C 137.600 245.065,149.300 245.200,163.599 245.200 L 189.598 245.200 189.701 322.700 L 189.803 400.200 189.802 322.600 L 189.800 245.000 163.700 244.800 C 149.345 244.690,137.600 244.735,137.600 244.900 " stroke="none" fill="#a9b4d4" fill-rule="evenodd"></path><path id="path3" d="M258.482 60.340 C 257.977 60.483,264.277 60.600,272.482 60.600 C 280.687 60.600,286.410 60.483,285.200 60.340 C 282.338 60.001,259.678 60.001,258.482 60.340 M251.600 61.221 C 251.170 61.514,251.454 61.554,252.600 61.362 C 254.584 61.030,254.904 60.798,253.367 60.806 C 252.725 60.809,251.930 60.996,251.600 61.221 M294.833 60.946 C 294.925 61.026,296.440 61.194,298.200 61.319 C 300.122 61.456,301.001 61.413,300.400 61.213 C 299.429 60.889,294.499 60.653,294.833 60.946 M247.200 62.000 C 246.405 62.514,247.404 62.514,248.600 62.000 L 249.400 61.656 248.600 61.634 C 248.160 61.622,247.530 61.787,247.200 62.000 M306.033 61.746 C 306.125 61.826,307.190 62.000,308.400 62.132 C 309.837 62.288,310.322 62.248,309.800 62.014 C 309.043 61.675,305.679 61.436,306.033 61.746 M243.600 62.800 C 243.067 63.145,243.067 63.188,243.600 63.188 C 243.930 63.188,244.470 63.013,244.800 62.800 C 245.333 62.455,245.333 62.412,244.800 62.412 C 244.470 62.412,243.930 62.587,243.600 62.800 M313.905 89.590 C 314.005 115.234,313.972 116.751,313.305 116.947 C 312.748 117.111,312.768 117.137,313.400 117.072 C 314.232 116.986,314.923 63.563,314.103 62.743 C 313.936 62.576,313.847 74.657,313.905 89.590 M228.900 68.026 C 227.965 68.465,227.200 68.919,227.200 69.035 C 227.200 69.152,227.335 69.177,227.500 69.091 C 227.665 69.005,228.475 68.626,229.300 68.248 C 230.125 67.871,230.800 67.481,230.800 67.381 C 230.800 67.133,230.816 67.128,228.900 68.026 M223.600 70.853 C 222.170 71.737,220.820 72.659,220.600 72.903 C 220.380 73.147,220.703 73.034,221.318 72.653 C 221.932 72.271,223.372 71.409,224.518 70.737 C 226.850 69.368,227.092 69.190,226.567 69.223 C 226.365 69.236,225.030 69.970,223.600 70.853 M217.829 74.629 C 217.405 74.938,217.136 75.269,217.230 75.363 C 217.324 75.457,217.748 75.281,218.171 74.971 C 218.595 74.662,218.864 74.331,218.770 74.237 C 218.676 74.143,218.252 74.319,217.829 74.629 M213.044 78.620 C 212.188 79.391,211.570 80.103,211.670 80.203 C 211.770 80.303,212.552 79.669,213.407 78.793 C 215.324 76.829,215.133 76.738,213.044 78.620 M208.833 82.715 C 208.521 83.092,207.894 83.850,207.439 84.400 C 206.983 84.950,207.373 84.688,208.305 83.819 C 209.237 82.949,210.000 82.184,210.000 82.119 C 210.000 81.774,209.329 82.117,208.833 82.715 M202.342 91.106 C 201.101 93.028,199.882 95.050,199.634 95.600 C 199.248 96.457,199.256 96.490,199.692 95.832 C 203.789 89.639,205.068 87.601,204.855 87.606 C 204.715 87.610,203.584 89.185,202.342 91.106 M198.279 97.974 C 197.906 98.606,197.601 99.276,197.601 99.462 C 197.602 99.648,197.972 99.195,198.423 98.455 C 198.874 97.715,199.179 97.046,199.101 96.967 C 199.022 96.889,198.652 97.342,198.279 97.974 M192.267 113.867 C 192.120 114.013,192.011 114.508,192.025 114.967 C 192.049 115.733,192.082 115.723,192.434 114.842 C 192.826 113.863,192.744 113.389,192.267 113.867 M191.449 117.415 C 191.312 117.773,191.215 118.366,191.234 118.733 C 191.253 119.100,191.427 118.869,191.621 118.220 C 191.998 116.958,191.865 116.333,191.449 117.415 M272.200 117.664 C 271.320 117.874,270.174 118.134,269.653 118.242 C 269.132 118.350,268.772 118.505,268.853 118.585 C 268.934 118.665,269.810 118.556,270.800 118.342 C 271.790 118.128,274.400 117.812,276.600 117.639 L 280.600 117.325 277.200 117.304 C 275.330 117.292,273.080 117.454,272.200 117.664 M265.700 119.434 C 264.985 119.746,264.400 120.090,264.400 120.198 C 264.400 120.376,267.576 119.251,267.967 118.935 C 268.395 118.588,266.862 118.926,265.700 119.434 M190.649 121.415 C 190.512 121.773,190.418 122.546,190.440 123.133 C 190.473 123.991,190.552 123.895,190.846 122.640 C 191.222 121.039,191.095 120.253,190.649 121.415 M256.893 126.000 C 256.618 126.440,256.531 126.800,256.700 126.800 C 256.869 126.800,257.232 126.440,257.507 126.000 C 257.782 125.560,257.869 125.200,257.700 125.200 C 257.531 125.200,257.168 125.560,256.893 126.000 M189.849 126.615 C 189.712 126.973,189.622 128.106,189.649 129.133 L 189.698 131.000 190.043 128.628 C 190.391 126.241,190.312 125.411,189.849 126.615 M253.449 133.415 C 253.312 133.773,253.218 134.456,253.241 134.933 C 253.267 135.481,253.403 135.286,253.610 134.403 C 253.960 132.916,253.865 132.333,253.449 133.415 M189.200 159.800 L 189.200 184.000 163.649 184.000 C 142.593 184.000,138.019 184.096,137.646 184.544 C 137.318 184.940,137.223 193.299,137.297 215.244 L 137.400 245.400 163.200 245.404 L 189.000 245.409 163.297 245.302 L 137.595 245.194 137.697 214.897 L 137.800 184.600 163.700 184.497 L 189.600 184.394 189.600 159.997 C 189.600 146.579,189.510 135.600,189.400 135.600 C 189.290 135.600,189.200 146.490,189.200 159.800 M252.653 137.636 C 252.514 138.331,252.424 139.733,252.454 140.750 C 252.497 142.209,252.575 141.966,252.822 139.601 C 253.153 136.431,253.075 135.525,252.653 137.636 M266.870 184.300 C 274.939 184.360,288.259 184.360,296.470 184.300 C 304.682 184.239,298.080 184.190,281.800 184.190 C 265.520 184.190,258.802 184.239,266.870 184.300 M311.659 187.600 C 311.620 188.150,311.489 189.050,311.367 189.600 C 311.176 190.462,311.208 190.502,311.597 189.891 C 311.846 189.502,311.977 188.602,311.889 187.891 C 311.764 186.887,311.713 186.822,311.659 187.600 M310.864 193.450 C 310.829 193.918,310.705 194.908,310.589 195.650 C 310.396 196.886,310.415 196.917,310.808 196.014 C 311.045 195.472,311.168 194.482,311.083 193.814 C 310.991 193.097,310.902 192.948,310.864 193.450 M310.059 200.000 C 310.020 200.550,309.889 201.450,309.767 202.000 C 309.576 202.862,309.608 202.902,309.997 202.291 C 310.246 201.902,310.377 201.002,310.289 200.291 C 310.164 199.287,310.113 199.222,310.059 200.000 M309.254 206.200 C 309.219 206.640,309.089 207.450,308.967 208.000 C 308.775 208.863,308.807 208.903,309.198 208.290 C 309.447 207.899,309.577 207.089,309.486 206.490 C 309.378 205.779,309.297 205.679,309.254 206.200 M308.254 213.154 C 308.100 214.118,308.058 214.991,308.161 215.094 C 308.430 215.363,308.915 212.545,308.707 211.922 C 308.612 211.636,308.408 212.190,308.254 213.154 M307.654 218.600 C 307.619 219.040,307.489 219.850,307.367 220.400 C 307.175 221.263,307.207 221.303,307.598 220.690 C 307.847 220.299,307.977 219.489,307.886 218.890 C 307.778 218.179,307.697 218.079,307.654 218.600 M306.854 224.600 C 306.819 225.040,306.689 225.850,306.567 226.400 C 306.375 227.263,306.407 227.303,306.798 226.690 C 307.047 226.299,307.177 225.489,307.086 224.890 C 306.978 224.179,306.897 224.079,306.854 224.600 M305.840 232.040 C 305.693 232.957,305.652 233.785,305.747 233.880 C 305.842 233.976,306.046 233.310,306.200 232.400 C 306.354 231.490,306.396 230.662,306.293 230.560 C 306.190 230.457,305.987 231.123,305.840 232.040 M305.040 238.040 C 304.893 238.957,304.852 239.785,304.947 239.880 C 305.042 239.976,305.246 239.310,305.400 238.400 C 305.554 237.490,305.596 236.662,305.493 236.560 C 305.390 236.457,305.187 237.123,305.040 238.040 M304.448 243.200 C 304.322 245.280,305.488 245.187,278.178 245.300 L 252.600 245.406 278.286 245.503 C 306.807 245.611,305.199 245.758,304.680 243.079 C 304.524 242.275,304.504 242.286,304.448 243.200 M189.200 322.600 C 189.090 365.060,189.045 399.875,189.100 399.967 C 189.539 400.698,189.590 390.779,189.501 322.566 L 189.400 245.400 189.200 322.600 " stroke="none" fill="#6c84b4" fill-rule="evenodd"></path><path id="path4" d="M279.507 60.690 C 280.226 60.779,281.306 60.777,281.907 60.686 C 282.508 60.595,281.920 60.522,280.600 60.524 C 279.280 60.526,278.788 60.601,279.507 60.690 M291.100 61.089 C 291.815 61.178,292.985 61.178,293.700 61.089 C 294.415 61.001,293.830 60.928,292.400 60.928 C 290.970 60.928,290.385 61.001,291.100 61.089 M303.905 61.883 C 304.402 61.979,305.122 61.975,305.505 61.875 C 305.887 61.775,305.480 61.696,304.600 61.701 C 303.720 61.705,303.407 61.787,303.905 61.883 M286.127 117.100 C 291.147 117.163,299.247 117.163,304.127 117.100 C 309.007 117.036,304.900 116.984,295.000 116.984 C 285.100 116.984,281.107 117.036,286.127 117.100 M189.720 132.800 C 189.720 134.010,189.795 134.505,189.887 133.900 C 189.978 133.295,189.978 132.305,189.887 131.700 C 189.795 131.095,189.720 131.590,189.720 132.800 M252.195 163.200 L 252.200 184.600 281.800 184.604 L 311.400 184.608 281.904 184.501 L 252.407 184.395 252.298 163.097 L 252.189 141.800 252.195 163.200 M150.700 184.700 C 157.795 184.761,169.405 184.761,176.500 184.700 C 183.595 184.639,177.790 184.589,163.600 184.589 C 149.410 184.589,143.605 184.639,150.700 184.700 M252.185 245.700 C 252.080 245.975,252.041 279.230,252.097 319.600 L 252.200 393.000 252.400 319.100 C 252.510 278.455,252.549 245.200,252.487 245.200 C 252.426 245.200,252.289 245.425,252.185 245.700 " stroke="none" fill="#8e9ec7" fill-rule="evenodd"></path></g></svg>