<svg id="svg" version="1.1" xmlns="http://www.w3.org/2000/svg" xmlns:xlink="http://www.w3.org/1999/xlink" width="400" height="400" viewBox="0, 0, 400,400"><g id="svgg"><path id="path0" d="M65.910 257.701 L 35.140 281.341 37.551 285.885 C 89.712 384.170,218.882 414.398,306.445 348.812 C 311.330 345.153,319.245 338.539,319.420 337.970 C 319.531 337.611,260.978 292.356,260.550 292.469 C 260.370 292.517,258.494 293.525,256.381 294.710 C 232.345 308.187,197.717 311.861,169.972 303.878 C 137.669 294.582,110.555 269.576,98.855 238.291 C 98.014 236.041,97.180 234.168,97.002 234.130 C 96.825 234.092,82.833 244.699,65.910 257.701 " stroke="none" fill="#34ab54" fill-rule="evenodd"></path><path id="path1" d="M200.000 202.148 L 200.000 237.500 249.209 237.500 L 298.418 237.500 298.179 238.770 C 294.315 259.332,281.997 277.483,262.314 291.617 L 261.204 292.414 289.684 314.431 C 305.348 326.540,318.450 336.692,318.799 336.990 C 320.906 338.790,339.558 316.546,348.626 301.418 C 371.440 263.359,381.106 205.996,371.063 168.262 L 370.673 166.797 285.337 166.797 L 200.000 166.797 200.000 202.148 " stroke="none" fill="#4484f3" fill-rule="evenodd"></path><path id="path2" d="M34.604 119.857 C 14.404 158.919,10.973 213.861,25.945 258.522 C 29.009 267.661,34.626 281.118,35.332 281.009 C 35.494 280.984,49.351 270.437,66.126 257.572 C 82.900 244.706,96.755 234.090,96.914 233.981 C 97.073 233.871,96.768 232.289,96.236 230.465 C 90.358 210.304,90.710 183.312,97.068 166.749 C 97.255 166.261,90.252 160.712,66.751 142.725 C 31.122 115.457,35.331 118.451,34.604 119.857 " stroke="none" fill="#fbbb04" fill-rule="evenodd"></path><path id="path3" d="M188.867 16.814 C 124.345 20.500,65.252 58.968,36.548 115.968 L 35.209 118.626 66.069 142.223 C 83.042 155.202,97.049 165.735,97.195 165.630 C 97.341 165.526,98.121 163.680,98.927 161.529 C 124.061 94.452,208.969 70.256,265.010 114.201 C 266.283 115.199,267.426 116.016,267.550 116.016 C 268.171 116.016,321.223 62.479,320.888 62.191 C 283.184 29.705,237.581 14.031,188.867 16.814 " stroke="none" fill="#ec4434" fill-rule="evenodd"></path><path id="path4" d="M285.264 166.699 L 370.723 166.799 370.960 167.983 C 371.090 168.635,371.278 169.086,371.378 168.987 C 371.477 168.887,371.440 168.266,371.295 167.606 L 371.032 166.406 285.418 166.503 L 199.805 166.600 285.264 166.699 M373.927 184.570 C 373.931 185.430,374.011 185.735,374.104 185.249 C 374.198 184.763,374.194 184.060,374.097 183.687 C 373.999 183.313,373.922 183.711,373.927 184.570 M374.330 188.086 C 374.333 189.160,374.409 189.553,374.499 188.959 C 374.589 188.366,374.586 187.487,374.494 187.006 C 374.401 186.526,374.328 187.012,374.330 188.086 M374.738 193.164 C 374.739 194.668,374.810 195.235,374.894 194.425 C 374.979 193.614,374.978 192.384,374.891 191.691 C 374.805 190.997,374.736 191.660,374.738 193.164 M374.750 209.766 C 374.750 211.807,374.816 212.642,374.896 211.621 C 374.977 210.601,374.977 208.931,374.896 207.910 C 374.816 206.890,374.750 207.725,374.750 209.766 M374.340 216.992 C 374.342 218.281,374.415 218.762,374.502 218.059 C 374.589 217.357,374.587 216.303,374.498 215.716 C 374.409 215.129,374.338 215.703,374.340 216.992 M373.940 221.680 C 373.943 222.754,374.019 223.147,374.108 222.553 C 374.198 221.959,374.196 221.081,374.103 220.600 C 374.010 220.120,373.937 220.605,373.940 221.680 M373.536 225.586 C 373.540 226.445,373.620 226.751,373.714 226.265 C 373.807 225.779,373.804 225.076,373.706 224.702 C 373.608 224.329,373.532 224.727,373.536 225.586 M373.138 228.906 C 373.138 229.658,373.218 229.966,373.316 229.590 C 373.414 229.214,373.414 228.599,373.316 228.223 C 373.218 227.847,373.138 228.154,373.138 228.906 M372.747 231.641 C 372.747 232.393,372.827 232.700,372.926 232.324 C 373.024 231.948,373.024 231.333,372.926 230.957 C 372.827 230.581,372.747 230.889,372.747 231.641 M372.356 234.375 C 372.356 235.127,372.437 235.435,372.535 235.059 C 372.633 234.683,372.633 234.067,372.535 233.691 C 372.437 233.315,372.356 233.623,372.356 234.375 M297.135 241.471 C 296.768 243.002,296.538 244.325,296.625 244.411 C 296.711 244.498,297.087 243.321,297.461 241.797 C 297.834 240.273,298.064 238.950,297.972 238.857 C 297.879 238.764,297.503 239.941,297.135 241.471 M294.920 248.886 C 293.262 253.711,293.218 253.862,293.687 253.125 C 294.248 252.242,296.523 245.625,296.397 245.244 C 296.336 245.062,295.671 246.701,294.920 248.886 M369.358 249.436 C 369.211 250.220,369.168 250.939,369.264 251.035 C 369.359 251.130,369.558 250.567,369.705 249.783 C 369.852 248.999,369.894 248.280,369.799 248.184 C 369.703 248.089,369.505 248.652,369.358 249.436 M292.642 254.900 C 291.987 256.336,292.112 256.642,292.820 255.337 C 293.150 254.727,293.347 254.155,293.258 254.065 C 293.169 253.976,292.891 254.351,292.642 254.900 M367.801 255.692 C 367.658 256.264,367.615 256.808,367.708 256.900 C 367.800 256.992,367.992 256.599,368.136 256.027 C 368.280 255.454,368.322 254.911,368.230 254.819 C 368.138 254.726,367.945 255.119,367.801 255.692 M290.857 258.898 C 284.618 271.668,271.923 285.825,261.362 291.789 C 260.833 292.088,260.822 292.214,261.288 292.651 C 261.588 292.933,261.720 292.962,261.582 292.715 C 261.431 292.446,262.804 291.223,265.022 289.650 C 272.998 283.997,280.454 276.337,285.746 268.359 C 288.338 264.452,292.394 257.107,292.114 256.827 C 292.023 256.737,291.458 257.668,290.857 258.898 M366.442 260.582 C 366.178 261.464,366.033 262.257,366.121 262.345 C 366.209 262.433,366.497 261.784,366.761 260.902 C 367.026 260.020,367.170 259.227,367.082 259.139 C 366.994 259.051,366.706 259.701,366.442 260.582 M364.540 266.688 C 364.074 268.121,363.758 269.357,363.838 269.437 C 363.917 269.516,364.370 268.416,364.844 266.992 C 365.318 265.568,365.634 264.331,365.546 264.244 C 365.458 264.156,365.006 265.256,364.540 266.688 M362.543 272.309 C 362.303 272.999,362.174 273.633,362.258 273.716 C 362.341 273.800,362.607 273.303,362.847 272.613 C 363.088 271.923,363.216 271.289,363.133 271.206 C 363.049 271.122,362.784 271.619,362.543 272.309 M360.166 278.423 C 359.664 279.655,358.490 282.316,357.557 284.334 C 355.677 288.399,355.339 289.548,356.912 286.523 C 358.328 283.800,361.414 276.518,361.230 276.334 C 361.146 276.250,360.667 277.190,360.166 278.423 M352.883 293.848 C 346.287 306.969,331.946 326.108,321.697 335.465 C 320.452 336.602,319.518 337.617,319.623 337.722 C 320.379 338.478,335.638 321.119,341.841 312.446 C 346.543 305.871,355.320 291.016,354.503 291.016 C 354.395 291.016,353.666 292.290,352.883 293.848 " stroke="none" fill="#3c92ba" fill-rule="evenodd"></path></g></svg>