<?xml version="1.0" standalone="no"?>
<!DOCTYPE svg PUBLIC "-//W3C//DTD SVG 20010904//EN"
 "http://www.w3.org/TR/2001/REC-SVG-20010904/DTD/svg10.dtd">
<svg version="1.0" xmlns="http://www.w3.org/2000/svg"
 width="218.000000pt" height="232.000000pt" viewBox="0 0 218.000000 232.000000"
 preserveAspectRatio="xMidYMid meet">

<g transform="translate(0.000000,232.000000) scale(0.100000,-0.100000)"
fill="#000000" stroke="none">
<path d="M983 2310 c-139 -25 -276 -102 -377 -211 -109 -118 -164 -249 -173
-414 -6 -128 13 -222 68 -334 43 -88 148 -210 217 -253 l35 -22 -29 -12 c-137
-61 -194 -89 -252 -128 -269 -178 -442 -473 -467 -793 -7 -90 -7 -92 19 -118
22 -22 33 -26 59 -21 44 9 55 27 61 104 28 328 192 588 471 747 399 227 932
129 1216 -222 127 -158 185 -306 204 -525 7 -77 18 -95 62 -104 26 -5 37 -1
59 21 26 26 26 28 19 118 -23 300 -173 574 -413 754 -84 63 -212 134 -279 154
-49 14 -53 21 -20 36 44 20 150 128 197 199 27 41 59 110 76 160 26 79 29 102
28 209 0 104 -4 131 -28 200 -93 270 -327 448 -603 460 -54 2 -121 0 -150 -5z
m252 -152 c161 -41 309 -182 365 -348 33 -95 32 -230 -2 -326 -65 -185 -207
-310 -398 -350 -230 -49 -471 73 -575 290 -193 402 175 846 610 734z"/>
</g>
</svg>
